Coordinates
version=1
nRows=5
nColumns=40
inDegrees=yes

Units are S.I. units (second, meters, Newtons, ...)
Angles are in degrees.

endheader
time	pelvis_tilt	pelvis_list	pelvis_rotation	pelvis_tx	pelvis_ty	pelvis_tz	hip_flexion_r	hip_adduction_r	hip_rotation_r	knee_angle_r	knee_angle_r_beta	ankle_angle_r	subtalar_angle_r	mtp_angle_r	hip_flexion_l	hip_adduction_l	hip_rotation_l	knee_angle_l	knee_angle_l_beta	ankle_angle_l	subtalar_angle_l	mtp_angle_l	lumbar_extension	lumbar_bending	lumbar_rotation	arm_flex_r	arm_add_r	arm_rot_r	elbow_flex_r	pro_sup_r	wrist_flex_r	wrist_dev_r	arm_flex_l	arm_add_l	arm_rot_l	elbow_flex_l	pro_sup_l	wrist_flex_l	wrist_dev_l
      1.01000000	     -0.42852868	      0.50581895	      2.42374493	      0.37872240	      0.89214604	      1.06287551	     24.71766110	     -7.06774218	    -11.32458622	    -57.73714795	     -1.00770333	      1.77674856	    -16.24069253	     19.38647518	      8.26965512	      0.00483047	      8.15236300	    -29.68097290	     -0.51803070	     13.05515337	     10.09124665	     -2.90844454	     -6.04077554	     -3.58862047	     -7.32510441	     -7.48433675	     -8.03753114	    -12.12261480	     30.44750171	     89.95437384	      0.00000000	      0.00000000	     -0.94962341	     11.10149569	     21.51114560	     41.75201990	     89.95437384	      0.00000000	      0.00000000
      1.02000000	     -0.46968653	      0.60043744	      2.68822513	      0.39094752	      0.89190079	      1.06202962	     25.62319115	     -7.30908756	    -11.53279601	    -55.20337034	     -0.96348057	      2.51616226	    -16.54928465	     19.24805725	      7.12131702	     -0.08200144	      8.26463842	    -29.12229141	     -0.50827987	     13.40271434	      9.78662082	     -3.00230118	     -6.09277081	     -3.65313157	     -7.69692886	     -7.68484235	     -7.97760428	    -12.74181986	     28.79114563	     89.95437384	      0.00000000	      0.00000000	     -0.67986280	     11.49845328	     21.29617198	     44.16791464	     89.95437384	      0.00000000	      0.00000000
      1.03000000	     -0.14678121	      0.68549013	      3.04299246	      0.40345642	      0.89219920	      1.06110371	     25.88640570	     -7.59957456	    -11.87538355	    -52.28466649	     -0.91253958	      3.03839585	    -16.72867303	     19.31018858	      5.55654898	     -0.10180793	      8.50832530	    -28.53951445	     -0.49810849	     13.46233312	      9.23373270	     -3.16335455	     -6.54790824	     -3.65466854	     -8.22639418	     -7.78070327	     -7.88012133	    -13.55849206	     27.14496793	     89.95437384	      0.00000000	      0.00000000	     -0.38705671	     11.88812352	     21.23653059	     46.53494656	     89.95437384	      0.00000000	      0.00000000
      1.04000000	      0.21692250	      0.71726661	      3.35991388	      0.41605392	      0.89244881	      1.06040248	     25.95156540	     -7.81228338	    -12.14595369	    -49.08396286	     -0.85667676	      3.46443678	    -16.69771031	     19.61001557	      3.93153738	      0.01964308	      8.92658202	    -27.91764829	     -0.48725488	     13.36860827	      8.27536925	     -3.54944638	     -7.03920285	     -3.58145757	     -8.57904501	     -8.06615616	     -7.83070361	    -14.34545835	     25.81344981	     89.95437384	      0.00000000	      0.00000000	      0.10889519	     12.15883741	     21.33471831	     48.62952185	     89.95437384	      0.00000000	      0.00000000
      1.05000000	      0.27718471	      0.86588384	      3.64905736	      0.42845273	      0.89196331	      1.05984605	     26.36768425	     -8.16195361	    -12.28074733	    -45.87301022	     -0.80063507	      3.51960149	    -16.59166264	     19.74833865	      2.73533738	     -0.02606428	      9.26062456	    -27.48759402	     -0.47974902	     13.51579006	      7.72657180	     -3.75395361	     -7.20110833	     -3.70405983	     -9.00929096	     -8.24478806	     -7.80648571	    -14.89273483	     24.34825882	     89.95437384	      0.00000000	      0.00000000	      0.30661453	     12.61475901	     21.24019482	     51.06444603	     89.95437384	      0.00000000	      0.00000000
